<?xml version="1.0" encoding="UTF-8" standalone="no"?>
<!DOCTYPE svg PUBLIC "-//W3C//DTD SVG 1.1//EN" "http://www.w3.org/Graphics/SVG/1.1/DTD/svg11.dtd">
<svg version="1.1" xmlns="http://www.w3.org/2000/svg" xmlns:xlink="http://www.w3.org/1999/xlink" preserveAspectRatio="xMidYMid meet" viewBox="0 0 640 640" width="640" height="640"><defs><path d="M634.49 317.03C632.84 143.34 490.71 3.87 317.03 5.51C143.34 7.16 3.87 149.29 5.51 322.97C7.16 496.66 149.29 636.13 322.97 634.49C496.66 632.84 636.13 490.71 634.49 317.03Z" id="cuk9t82iv"></path><path d="M508.85 355.31C496.16 342.87 432.73 280.63 318.56 168.61C206.53 282.77 144.3 346.19 131.85 358.88C121.51 369.42 121.66 386.35 132.21 396.71C142.75 407.05 159.69 406.89 170.03 396.35C179.98 386.21 229.73 335.51 319.27 244.25C410.53 333.8 461.23 383.55 471.37 393.5C481.92 403.84 498.85 403.68 509.21 393.14C514.37 387.87 516.92 381 516.85 374.15C516.79 367.3 514.11 360.49 508.85 355.31Z" id="bcP1azJk5"></path></defs><g><g><g><use xlink:href="#cuk9t82iv" opacity="1" fill="#34b6a6" fill-opacity="1"></use><g><use xlink:href="#cuk9t82iv" opacity="1" fill-opacity="0" stroke="#000000" stroke-width="1" stroke-opacity="0"></use></g></g><g><use xlink:href="#bcP1azJk5" opacity="1" fill="#ffffff" fill-opacity="1"></use><g><use xlink:href="#bcP1azJk5" opacity="1" fill-opacity="0" stroke="#000000" stroke-width="1" stroke-opacity="0"></use></g></g></g></g></svg>