<?xml version="1.0" standalone="no"?>
<!DOCTYPE svg PUBLIC "-//W3C//DTD SVG 20010904//EN"
 "http://www.w3.org/TR/2001/REC-SVG-20010904/DTD/svg10.dtd">
<svg version="1.0" xmlns="http://www.w3.org/2000/svg"
 width="700.000000pt" height="700.000000pt" viewBox="0 0 700.000000 700.000000"
 preserveAspectRatio="xMidYMid meet">
<metadata>
Created by potrace 1.11, written by Peter Selinger 2001-2013
</metadata>
<g transform="translate(0.000000,700.000000) scale(0.100000,-0.100000)"
fill="#000000" stroke="none">
<path d="M3225 6930 c-768 -68 -1470 -371 -2030 -877 -628 -567 -1015 -1327
-1117 -2188 -16 -143 -17 -588 0 -725 99 -816 429 -1506 987 -2066 562 -563
1263 -900 2070 -996 167 -19 597 -16 770 6 786 100 1476 436 2025 986 562 561
891 1248 992 2070 17 136 17 582 0 720 -76 625 -275 1148 -629 1647 -154 218
-416 496 -628 667 -508 408 -1091 654 -1760 742 -134 18 -543 26 -680 14z
m1036 -2534 c1145 -1124 1339 -1317 1362 -1361 31 -58 31 -202 0 -260 -74
-138 -246 -199 -380 -135 -61 29 8 -36 -972 925 -420 413 -769 751 -775 753
-7 1 -383 -376 -837 -838 -933 -953 -881 -907 -1021 -898 -114 8 -191 55 -243
150 -27 47 -30 63 -30 138 0 76 3 90 30 137 33 58 2072 2144 2091 2140 6 -1
355 -339 775 -751z"/>
</g>
</svg>
